<?xml version="1.0" standalone="no"?><!DOCTYPE svg PUBLIC "-//W3C//DTD SVG 1.1//EN" "http://www.w3.org/Graphics/SVG/1.1/DTD/svg11.dtd"><svg t="1622990130930" class="icon" viewBox="0 0 1024 1024" version="1.1" xmlns="http://www.w3.org/2000/svg" p-id="8286" xmlns:xlink="http://www.w3.org/1999/xlink" width="200" height="200"><defs><style type="text/css"></style></defs><path d="M327.68 472.210286l392.045714-1.170286-84.845714 496.786286c-4.096 23.990857-25.161143 41.545143-49.152 41.545143l-124.635429-0.585143c-23.990857 0-44.470857-17.554286-48.566857-41.545143L327.68 472.210286z" fill="#F7D06F" p-id="8287"></path><path d="M585.728 1024l-124.635429-0.585143c-31.012571 0-57.929143-22.820571-63.195428-53.248L310.125714 457.581714l427.154286-1.170285-87.771429 514.340571c-5.266286 31.012571-32.182857 53.248-63.780571 53.248zM344.649143 486.838857l81.92 478.061714c2.925714 16.969143 17.554286 29.257143 34.523428 29.257143l124.635429 0.585143c16.969143 0 31.597714-12.288 34.523429-29.257143l81.92-479.817143-357.522286 1.170286z" fill="#2D2D2D" p-id="8288"></path><path d="M385.024 384.438857l244.589714-25.746286c25.746286-2.925714 48.566857 15.798857 51.492572 41.545143 2.925714 25.746286-15.798857 48.566857-41.545143 51.492572l-244.589714 25.746285c-25.746286 2.925714-48.566857-15.798857-51.492572-41.545142-2.925714-25.746286 15.798857-48.566857 41.545143-51.492572z" fill="#E9B7D4" p-id="8289"></path><path d="M389.705143 492.690286c-14.043429 0-27.501714-4.681143-38.619429-13.458286-12.873143-10.532571-20.48-25.161143-22.235428-41.545143-3.510857-33.938286 21.065143-63.780571 54.418285-67.291428l244.589715-25.746286c16.384-1.755429 32.182857 2.925714 45.056 13.458286 12.873143 10.532571 20.48 25.161143 22.235428 41.545142 1.755429 16.384-2.925714 32.182857-13.458285 45.056-10.532571 12.873143-25.161143 20.48-41.545143 22.235429l-244.589715 25.746286h-5.851428z m-3.510857-93.622857c-17.554286 1.755429-30.427429 17.554286-28.672 35.108571 1.170286 8.777143 5.266286 16.384 11.702857 21.650286 6.436571 5.266286 15.213714 8.192 23.405714 7.021714L637.805714 437.686857c8.777143-1.170286 16.384-5.266286 21.650286-11.702857 5.266286-6.436571 7.606857-15.213714 7.021714-23.405714-1.170286-8.777143-5.266286-16.384-11.702857-21.650286-6.436571-5.266286-15.213714-7.606857-23.405714-7.021714L386.194286 399.067429z" fill="#3A3A3A" p-id="8290"></path><path d="M407.844571 293.741714L588.068571 275.017143c25.746286-2.925714 48.566857 15.798857 51.492572 41.545143 2.925714 25.746286-15.798857 48.566857-41.545143 51.492571l-180.224 18.724572c-25.746286 2.925714-48.566857-15.798857-51.492571-41.545143-2.340571-25.746286 16.384-49.152 41.545142-51.492572z" fill="#E9B7D4" p-id="8291"></path><path d="M413.110857 401.408c-14.043429 0-27.501714-4.681143-38.619428-13.458286-12.873143-10.532571-20.48-25.161143-22.235429-41.545143-3.510857-33.938286 21.065143-63.780571 54.418286-67.291428l180.224-18.724572c16.384-1.755429 32.182857 2.925714 45.056 13.458286 12.873143 10.532571 20.48 25.161143 22.235428 41.545143 1.755429 16.384-2.925714 32.182857-13.458285 45.056-10.532571 12.873143-25.161143 20.48-41.545143 22.235429l-180.224 18.724571h-5.851429zM409.6 308.370286c-8.777143 1.170286-16.384 5.266286-21.650286 11.702857-5.266286 6.436571-7.606857 15.213714-7.021714 23.405714 1.170286 8.777143 5.266286 16.384 11.702857 21.650286 6.436571 5.266286 15.213714 7.606857 23.405714 7.021714L596.845714 352.841143c8.777143-1.170286 16.384-5.266286 21.650286-11.702857 5.266286-6.436571 7.606857-15.213714 7.021714-23.405715-1.170286-8.777143-5.266286-16.384-11.702857-21.650285-6.436571-5.266286-15.213714-7.606857-23.405714-7.021715L409.6 308.370286z" fill="#3A3A3A" p-id="8292"></path><path d="M437.101714 179.053714l122.294857-12.873143c25.746286-2.925714 48.566857 15.798857 51.492572 41.545143 2.925714 25.746286-15.798857 48.566857-41.545143 51.492572l-122.294857 12.873143c-25.746286 2.925714-48.566857-15.798857-51.492572-41.545143-2.925714-25.746286 15.798857-48.566857 41.545143-51.492572z" fill="#E9B7D4" p-id="8293"></path><path d="M441.782857 287.305143c-14.043429 0-27.501714-4.681143-38.619428-13.458286-12.873143-10.532571-20.48-25.161143-22.235429-41.545143s2.925714-32.182857 13.458286-45.056c10.532571-12.873143 25.161143-20.48 41.545143-22.235428L557.641143 152.137143c16.384-1.755429 32.182857 2.925714 45.056 13.458286 12.873143 10.532571 20.48 25.161143 22.235428 41.545142 1.755429 16.384-2.925714 32.182857-13.458285 45.056-10.532571 12.873143-25.161143 20.48-41.545143 22.235429L448.804571 286.72c-2.340571 0.585143-4.681143 0.585143-7.021714 0.585143z m122.88-106.496h-3.510857L438.857143 193.682286c-8.777143 1.170286-16.384 5.266286-21.650286 11.702857s-7.606857 15.213714-7.021714 23.405714c1.170286 8.777143 5.266286 16.384 11.702857 21.650286 6.436571 5.266286 15.213714 7.606857 23.405714 7.021714L567.588571 245.174857c8.777143-1.170286 16.384-5.266286 21.650286-11.702857s7.606857-15.213714 7.021714-23.405714c-1.170286-8.777143-5.266286-16.384-11.702857-21.650286-5.851429-5.266286-12.873143-7.606857-19.894857-7.606857z" fill="#3A3A3A" p-id="8294"></path><path d="M529.554286 93.622857c25.161143-2.925714 50.322286 4.096 53.248 32.768 2.925714 29.257143-16.969143 42.715429-42.715429 45.641143l-65.536 7.021714c-25.161143 2.925714-46.226286-6.436571-49.152-35.693714s13.458286-39.789714 38.619429-42.715429c12.288-38.619429 15.213714-64.365714 8.777143-76.068571-5.266286-9.362286 15.798857-7.021714 42.130285 26.916571 9.362286 12.873143 14.628571 26.916571 14.628572 42.130286z" fill="#E9B7D4" p-id="8295"></path><path d="M467.529143 193.682286c-31.597714 0-52.662857-18.139429-56.173714-49.152-1.755429-18.139429 2.340571-32.768 12.873142-43.300572 7.021714-7.021714 16.384-11.702857 28.672-14.043428 12.873143-42.715429 8.192-53.833143 7.021715-55.588572-5.266286-9.947429-1.755429-19.309714 4.681143-23.405714 16.969143-11.117714 43.885714 11.702857 61.44 34.523429 8.192 11.117714 14.043429 22.820571 16.384 35.693714 11.117714 0.585143 20.48 2.340571 28.672 6.436571 10.532571 5.266286 23.990857 16.384 26.331428 39.789715 3.510857 33.938286-17.554286 57.344-55.588571 61.44L476.306286 193.097143c-2.925714 0.585143-5.851429 0.585143-8.777143 0.585143z m23.405714-146.870857c-0.585143 14.628571-4.681143 33.938286-12.873143 57.929142-1.755429 5.266286-6.436571 9.362286-12.288 9.947429-9.947429 1.170286-17.554286 3.510857-21.065143 7.021714-1.170286 1.170286-5.851429 5.851429-4.096 19.309715 1.170286 12.288 6.436571 25.746286 33.353143 22.820571l65.536-7.021714c32.182857-3.510857 30.427429-22.820571 29.257143-29.257143-1.170286-11.117714-5.851429-14.628571-10.532571-16.969143-6.436571-2.925714-15.798857-4.096-26.916572-2.925714-4.096 0.585143-8.192-1.170286-11.117714-3.510857-3.510857-2.340571-5.266286-6.436571-5.266286-10.532572 0-11.702857-4.096-22.820571-11.702857-32.768-4.681143-5.851429-8.777143-10.532571-12.288-14.043428z" fill="#3A3A3A" p-id="8296"></path><path d="M321.828571 456.411429h380.342858c22.820571 0 40.96 18.139429 40.96 40.96v58.514285c0 22.820571-18.139429 40.96-40.96 40.96H321.828571c-22.820571 0-40.96-18.139429-40.96-40.96V497.371429c0-22.820571 18.139429-40.96 40.96-40.96z" fill="#FFD89A" p-id="8297"></path><path d="M702.171429 611.474286H321.828571c-30.427429 0-55.588571-25.161143-55.588571-55.588572V497.371429c0-30.427429 25.161143-55.588571 55.588571-55.588572h380.342858c30.427429 0 55.588571 25.161143 55.588571 55.588572v58.514285c0 30.427429-25.161143 55.588571-55.588571 55.588572z m-380.342858-140.434286c-14.628571 0-26.331429 11.702857-26.331428 26.331429v58.514285c0 14.628571 11.702857 26.331429 26.331428 26.331429h380.342858c14.628571 0 26.331429-11.702857 26.331428-26.331429V497.371429c0-14.628571-11.702857-26.331429-26.331428-26.331429H321.828571z" fill="#3A3A3A" p-id="8298"></path><path d="M468.114286 491.52m-11.702857 0a11.702857 11.702857 0 1 0 23.405714 0 11.702857 11.702857 0 1 0-23.405714 0Z" fill="#3A3A3A" p-id="8299"></path><path d="M430.665143 731.428571h-31.012572c-4.681143 0-8.192-4.096-8.192-8.777142s3.510857-8.777143 8.192-8.777143h31.012572c4.681143 0 8.192 4.096 8.192 8.777143s-3.510857 8.777143-8.192 8.777142zM647.168 731.428571h-31.012571c-4.681143 0-8.192-4.096-8.192-8.777142s3.510857-8.777143 8.192-8.777143h31.012571c4.681143 0 8.192 4.096 8.192 8.777143s-3.510857 8.777143-8.192 8.777142z" fill="#FF6376" p-id="8300"></path><path d="M554.130286 696.32c-4.096 0-7.606857 3.510857-7.606857 8.192 0 5.851429-4.096 10.532571-9.362286 10.532571-5.266286 0-9.362286-4.681143-9.362286-10.532571 0-4.681143-3.510857-8.192-7.606857-8.192s-7.606857 3.510857-7.606857 8.192c0 5.851429-4.096 10.532571-9.362286 10.532571-5.266286 0-9.362286-4.681143-9.362286-10.532571 0-4.681143-3.510857-8.192-7.606857-8.192-4.096 0-7.606857 3.510857-7.606857 8.192 0 14.628571 11.117714 26.916571 23.990857 26.916571 6.436571 0 12.288-2.925714 16.969143-7.606857 4.096 4.681143 10.532571 7.606857 16.969143 7.606857 13.458286 0 23.990857-12.288 23.990857-26.916571 1.170286-4.681143-2.340571-8.192-6.436571-8.192z" fill="#262626" p-id="8301"></path><path d="M418.377143 678.765714c-8.192 0-14.628571 6.436571-14.628572 14.628572s6.436571 14.628571 14.628572 14.628571 14.628571-6.436571 14.628571-14.628571-6.436571-14.628571-14.628571-14.628572z" fill="#1E1E1E" p-id="8302"></path><path d="M629.028571 678.765714c-11.117714 0-20.48 9.947429-20.48 21.650286 0 4.096 3.510857 7.606857 7.021715 7.606857 4.096 0 7.021714-3.510857 7.021714-7.606857 0-3.510857 2.925714-6.436571 5.851429-6.436571s5.851429 2.925714 5.851428 6.436571c0 4.096 3.510857 7.606857 7.021714 7.606857 4.096 0 7.021714-3.510857 7.021715-7.606857 1.170286-11.702857-8.192-21.650286-19.309715-21.650286z" fill="#333333" p-id="8303"></path><path d="M317.147429 564.662857c-7.021714 0-13.458286-5.266286-14.628572-12.288-4.096-26.916571-0.585143-46.811429 10.532572-59.684571 8.777143-10.532571 21.650286-15.798857 38.619428-15.798857H433.005714c8.192 0 14.628571 6.436571 14.628572 14.628571s-6.436571 14.628571-14.628572 14.628571H352.256c-11.702857 0-15.213714 4.096-16.384 5.266286-5.266286 5.851429-6.436571 18.724571-4.096 36.278857 1.170286 8.192-4.096 15.798857-12.288 16.969143h-2.340571z" fill="#3A3A3A" p-id="8304"></path></svg>